<svg id="visual" viewBox="0 0 900 600" width="900" height="600" xmlns="http://www.w3.org/2000/svg" xmlns:xlink="http://www.w3.org/1999/xlink" version="1.1"><rect x="0" y="0" width="900" height="600" fill="#001220"></rect><path d="M0 195L30 202.7C60 210.3 120 225.7 180 216.7C240 207.7 300 174.3 360 160.2C420 146 480 151 540 172.3C600 193.7 660 231.3 720 235.2C780 239 840 209 870 194L900 179L900 0L870 0C840 0 780 0 720 0C660 0 600 0 540 0C480 0 420 0 360 0C300 0 240 0 180 0C120 0 60 0 30 0L0 0Z" fill="#fa7268"></path><path d="M0 205L30 195.8C60 186.7 120 168.3 180 148C240 127.7 300 105.3 360 95C420 84.7 480 86.3 540 97C600 107.7 660 127.3 720 142.2C780 157 840 167 870 172L900 177L900 0L870 0C840 0 780 0 720 0C660 0 600 0 540 0C480 0 420 0 360 0C300 0 240 0 180 0C120 0 60 0 30 0L0 0Z" fill="#e34c67"></path><path d="M0 137L30 137.8C60 138.7 120 140.3 180 125.5C240 110.7 300 79.3 360 74C420 68.7 480 89.3 540 98C600 106.7 660 103.3 720 95.2C780 87 840 74 870 67.5L900 61L900 0L870 0C840 0 780 0 720 0C660 0 600 0 540 0C480 0 420 0 360 0C300 0 240 0 180 0C120 0 60 0 30 0L0 0Z" fill="#c62368"></path></svg>